v -1.000000 1.000000 -1.000000
v 1.000000 -1.000000 1.000000
v 1.000000 1.000000 1.000000
v 1.000000 -1.000000 -1.000000
v 1.000000 1.000000 -1.000000
vt 0.343923 0.288779
vt 0.982747 0.758131
vt 0.677420 0.758131
vt 0.677420 0.538418
vt 0.654372 0.535544
vt 0.654372 0.758215
vt 0.344166 0.758215
vt 0.344166 0.535750
vt 0.327407 0.537083
vt 0.327407 0.759706
vt 0.656108 0.524271
vt 0.344171 0.524271
vt 0.655295 0.773650
vt 0.655295 0.993820
vt 0.346502 0.773650
vn -1.0000 -0.0000 -0.0000
vn -0.0000 -0.0000 -1.0000
vn 1.0000 -0.0000 -0.0000
vn -0.0000 -0.0000 1.0000
vn -0.0000 -1.0000 -0.0000
vn -0.0000 1.0000 -0.0000
f 1/1/1
f 1/2/2 5/3/2 4/4/2
f 4/5/3 5/6/3 3/7/3 2/8/3
f 2/9/4 3/10/4
f 4/11/5 2/12/5
f 5/13/6 1/14/6 3/15/6
